<svg xmlns="http://www.w3.org/2000/svg" viewBox="0 0 32 32">
  <defs>
    <linearGradient id="grad" x1="0%" y1="0%" x2="100%" y2="100%">
      <stop offset="0%" style="stop-color:#4b5563"/>
      <stop offset="100%" style="stop-color:#111827"/>
    </linearGradient>
  </defs>
  <!-- Shield shape representing protection/military -->
  <path d="M16 2 L28 6 L28 14 C28 22 22 28 16 30 C10 28 4 22 4 14 L4 6 Z" fill="url(#grad)" stroke="#6b7280" stroke-width="1"/>
  <!-- Stylized S for Stratexim with textile weave suggestion -->
  <path d="M12 10 L20 10 L20 12 L14 12 L14 14 L18 14 C20 14 21 15 21 17 L21 18 C21 20 20 21 18 21 L10 21 L10 19 L18 19 L18 17 L14 17 C12 17 11 16 11 14 L11 12 C11 11 11.5 10 12 10 Z" fill="white"/>
</svg>
